<?xml version="1.0" encoding="iso-8859-1"?>
<!-- Uploaded to: SVG Repo, www.svgrepo.com, Generator: SVG Repo Mixer Tools -->
<svg fill="#000000" height="800px" width="800px" version="1.1" id="Capa_1" xmlns="http://www.w3.org/2000/svg" xmlns:xlink="http://www.w3.org/1999/xlink" 
	 viewBox="0 0 490 490" xml:space="preserve">
<g>
	<g>
		<path d="M482.6,0H7C3.1,0,0,3.1,0,7v476c0,3.9,3.1,7,7,7h476c3.9,0,7-3.1,7-7V7C489.6,3.1,486.5,0,482.6,0z M244.8,468.6
			c-15.9,0-29.1-12.8-29.1-28.8c0-15.9,12.8-28.8,29.1-28.8s29.1,12.8,29.1,28.8C273.9,455.8,260.7,468.6,244.8,468.6z M460.5,378.9
			c0,5.4-4.3,9.7-9.7,9.7H38.9c-5.4,0-9.7-4.3-9.7-9.7V34.2c0-5.4,4.3-9.7,9.7-9.7h411.9c5.4,0,9.7,4.3,9.7,9.7V378.9z"/>
		<path d="M116.4,296.7c-18.5-18.5-47.3-20.3-67.8-5.5v77.9h69.5C136.8,348.6,136.3,316.6,116.4,296.7z"/>
		<path d="M48.6,43.9v205.6c4.3-1.6,8.9-2.7,13.6-3.5v-29.1h33.4V246c12.8,2.3,24.5,7,34.6,14l21.4-20.6l23.3,22.9l-21.4,20.6
			c7,10.1,12,21.4,14.4,33.8h30.3V349h-30.3c-1.2,7-3.5,13.6-6.6,19.8h280.2V43.9H48.6z"/>
	</g>
</g>
</svg>