<?xml version="1.0" encoding="iso-8859-1"?>
<!-- Uploaded to: SVG Repo, www.svgrepo.com, Generator: SVG Repo Mixer Tools -->
<svg version="1.1" id="Layer_1" xmlns="http://www.w3.org/2000/svg" xmlns:xlink="http://www.w3.org/1999/xlink" 
	 viewBox="0 0 512 512" xml:space="preserve">
<path d="M161.627,27.617c-0.911,0-1.808-0.097-2.706-0.276c-0.884-0.179-1.753-0.44-2.582-0.786
	c-0.828-0.345-1.629-0.774-2.388-1.271c-0.745-0.496-1.463-1.075-2.098-1.71c-2.568-2.568-4.031-6.13-4.031-9.76
	c0-0.897,0.083-1.808,0.262-2.706c0.179-0.87,0.442-1.739,0.787-2.582c0.345-0.828,0.773-1.629,1.27-2.374
	c0.511-0.759,1.077-1.465,1.712-2.1c0.635-0.635,1.353-1.215,2.098-1.726c0.759-0.496,1.56-0.925,2.388-1.27
	c0.828-0.345,1.698-0.606,2.582-0.786c1.781-0.36,3.617-0.36,5.398,0c0.884,0.179,1.753,0.44,2.582,0.786s1.643,0.774,2.388,1.27
	c0.745,0.511,1.463,1.091,2.098,1.726s1.215,1.34,1.712,2.1c0.497,0.745,0.925,1.546,1.27,2.374
	c0.345,0.842,0.607,1.712,0.787,2.582c0.179,0.897,0.262,1.808,0.262,2.706c0,3.631-1.463,7.193-4.031,9.76
	c-0.635,0.635-1.353,1.215-2.098,1.71c-0.745,0.497-1.56,0.926-2.388,1.271c-0.828,0.345-1.698,0.606-2.582,0.786
	C163.435,27.52,162.526,27.617,161.627,27.617z"/>
<path d="M350.371,27.617c-0.896,0-1.808-0.097-2.691-0.276c-0.885-0.179-1.755-0.44-2.582-0.786
	c-0.83-0.345-1.643-0.774-2.388-1.271c-0.745-0.496-1.463-1.075-2.098-1.71c-2.568-2.568-4.046-6.13-4.046-9.76
	c0-0.897,0.097-1.808,0.276-2.706c0.179-0.87,0.442-1.739,0.787-2.582c0.345-0.828,0.773-1.629,1.27-2.374
	c0.497-0.759,1.077-1.465,1.712-2.1c0.635-0.635,1.352-1.215,2.098-1.726c0.745-0.496,1.56-0.925,2.388-1.27
	c0.828-0.345,1.697-0.606,2.582-0.786c4.487-0.897,9.248,0.565,12.452,3.781c0.649,0.635,1.215,1.34,1.726,2.1
	c0.497,0.745,0.925,1.546,1.27,2.374c0.345,0.842,0.607,1.712,0.787,2.582c0.179,0.897,0.261,1.808,0.261,2.706
	c0,3.631-1.463,7.193-4.045,9.76c-0.635,0.635-1.339,1.215-2.098,1.71c-0.745,0.497-1.546,0.926-2.376,1.271
	c-0.828,0.345-1.697,0.606-2.582,0.786C352.181,27.52,351.283,27.617,350.371,27.617z"/>
<path d="M350.371,512c-0.896,0-1.808-0.084-2.691-0.262c-0.885-0.179-1.755-0.456-2.582-0.801c-0.83-0.345-1.643-0.773-2.388-1.27
	c-0.745-0.496-1.463-1.075-2.098-1.71c-0.635-0.636-1.215-1.34-1.712-2.1c-0.497-0.745-0.925-1.546-1.27-2.374
	c-0.345-0.842-0.607-1.712-0.787-2.595c-0.179-0.885-0.276-1.796-0.276-2.692c0-0.897,0.097-1.81,0.276-2.692
	c0.179-0.882,0.442-1.753,0.787-2.582c0.345-0.841,0.773-1.641,1.27-2.387c0.497-0.761,1.077-1.465,1.712-2.1
	c0.635-0.635,1.352-1.215,2.098-1.712c0.745-0.509,1.56-0.925,2.388-1.27c0.828-0.345,1.697-0.62,2.582-0.786
	c1.781-0.36,3.617-0.36,5.396,0c0.885,0.166,1.741,0.44,2.582,0.786c0.83,0.345,1.63,0.761,2.376,1.27
	c0.759,0.497,1.463,1.077,2.098,1.712c0.649,0.635,1.215,1.339,1.726,2.1c0.497,0.745,0.925,1.546,1.27,2.387
	c0.345,0.83,0.607,1.698,0.787,2.582c0.179,0.884,0.261,1.795,0.261,2.692c0,0.896-0.083,1.808-0.261,2.692
	c-0.179,0.884-0.442,1.753-0.787,2.595c-0.345,0.828-0.773,1.629-1.27,2.374c-0.511,0.759-1.091,1.463-1.726,2.1
	c-0.635,0.635-1.339,1.215-2.098,1.71c-0.745,0.497-1.546,0.925-2.376,1.27c-0.841,0.345-1.71,0.621-2.582,0.801
	C352.181,511.917,351.283,512,350.371,512z"/>
<path d="M161.627,512c-0.911,0-1.808-0.084-2.706-0.262c-0.884-0.179-1.739-0.456-2.582-0.801c-0.828-0.345-1.629-0.773-2.374-1.27
	c-0.759-0.496-1.463-1.075-2.098-1.71c-0.649-0.636-1.215-1.34-1.726-2.1c-0.497-0.745-0.925-1.546-1.27-2.374
	c-0.345-0.842-0.607-1.712-0.787-2.595c-0.179-0.885-0.262-1.796-0.262-2.692c0-0.897,0.083-1.81,0.262-2.692
	c0.179-0.884,0.442-1.753,0.787-2.582c0.345-0.841,0.773-1.641,1.27-2.387c0.497-0.761,1.077-1.465,1.712-2.1
	c0.635-0.635,1.353-1.215,2.098-1.712c0.759-0.509,1.56-0.925,2.388-1.27c0.842-0.345,1.698-0.62,2.582-0.786
	c1.781-0.36,3.617-0.36,5.398,0c0.884,0.166,1.753,0.44,2.582,0.786s1.643,0.761,2.388,1.27c0.745,0.497,1.463,1.077,2.098,1.712
	c0.635,0.635,1.215,1.339,1.712,2.1c0.497,0.745,0.925,1.546,1.27,2.387c0.345,0.83,0.607,1.698,0.787,2.582
	c0.179,0.884,0.276,1.795,0.276,2.692c0,0.896-0.097,1.808-0.276,2.692s-0.442,1.753-0.787,2.595
	c-0.345,0.828-0.773,1.629-1.27,2.374c-0.497,0.759-1.077,1.463-1.712,2.1c-0.635,0.635-1.353,1.215-2.098,1.71
	c-0.745,0.497-1.56,0.925-2.388,1.27s-1.698,0.621-2.582,0.801C163.435,511.917,162.526,512,161.627,512z"/>
<rect x="138.19" y="86.337" style="fill:#E7AD7C;" width="235.613" height="143.077"/>
<path style="fill:#E4AAA9;" d="M362.788,370.88H149.213c-19.173,0-34.716-15.543-34.716-34.716l0,0
	c0-19.173,15.543-34.716,34.716-34.716h213.575c19.173,0,34.716,15.543,34.716,34.716l0,0
	C397.504,355.337,381.96,370.88,362.788,370.88z"/>
<path d="M411.309,336.164c0-26.286-21.016-47.742-47.125-48.485v-44.451h9.621c7.623,0,13.805-6.182,13.805-13.805V86.339
	c0-7.623-6.182-13.805-13.805-13.805h-9.621V55.225c0-7.623-6.182-13.805-13.805-13.805s-13.805,6.182-13.805,13.805v17.309H175.427
	V55.225c0-7.623-6.181-13.805-13.805-13.805c-7.625,0-13.805,6.182-13.805,13.805v17.309h-9.621
	c-7.625,0-13.805,6.182-13.805,13.805v143.084c0,7.623,6.181,13.805,13.805,13.805h9.621v44.453
	c-26.11,0.743-47.125,22.199-47.125,48.485c0,26.288,21.016,47.742,47.125,48.487v72.129c0,7.623,6.181,13.805,13.805,13.805
	c7.625,0,13.805-6.182,13.805-13.805v-72.093h161.147v72.093c0,7.623,6.182,13.805,13.805,13.805s13.805-6.182,13.805-13.805
	v-72.128C390.293,383.908,411.309,362.452,411.309,336.164z M152.001,215.617V100.144h207.999v115.474H152.001z M336.573,243.228
	v44.417H175.427v-44.417H336.573z M362.788,357.076H149.213c-11.53,0-20.911-9.381-20.911-20.911
	c0-11.53,9.381-20.909,20.911-20.909h213.576c11.53,0,20.909,9.381,20.909,20.909C383.699,347.696,374.318,357.076,362.788,357.076z
	"/>
</svg>