<?xml version="1.0" encoding="iso-8859-1"?>
<!-- Uploaded to: SVG Repo, www.svgrepo.com, Generator: SVG Repo Mixer Tools -->
<svg height="800px" width="800px" version="1.1" id="Layer_1" xmlns="http://www.w3.org/2000/svg" xmlns:xlink="http://www.w3.org/1999/xlink" 
	 viewBox="0 0 512 512" xml:space="preserve">
<path style="fill:#415E72;" d="M256,217.64c-5.129,0-9.287-4.158-9.287-9.287V30.654c0-5.129,4.158-9.287,9.287-9.287
	c5.129,0,9.287,4.158,9.287,9.287v177.698C265.286,213.482,261.129,217.64,256,217.64z"/>
<path style="fill:#FF6F52;" d="M178.264,0.004c13.979,28.818,43.516,48.679,77.707,48.679c0.014,0,0.014,0,0.028,0
	c34.164-0.014,63.686-19.875,77.68-48.679C333.68,0.004,178.264,0.004,178.264,0.004z"/>
<path style="fill:#E25749;" d="M255.978,48.676c-34.201,0-63.733-19.849-77.713-48.676h44.627
	C228.847,28.827,241.416,48.676,255.978,48.676z"/>
<polygon style="fill:#CFDCE5;" points="286.134,190.325 225.866,190.325 220.032,247.006 291.968,247.006 "/>
<polygon style="fill:#BAC6CC;" points="225.866,190.325 220.032,247.006 246.036,247.006 251.869,190.325 "/>
<path style="fill:#FCD577;" d="M257.34,474.994h-60.446C207.521,496.891,229.974,512,255.967,512
	c25.907,0,48.307-15.023,58.976-36.822c0.032-0.064,0.064-0.118,0.097-0.182H257.34V474.994z"/>
<polygon style="fill:#FF6F52;" points="400.919,245.768 111.081,245.768 65.369,476.233 446.631,476.233 "/>
<polygon style="fill:#E25749;" points="111.081,245.768 65.369,476.233 143.038,476.233 165.418,245.768 "/>
</svg>