<?xml version="1.0" encoding="iso-8859-1"?>
<!-- Uploaded to: SVG Repo, www.svgrepo.com, Generator: SVG Repo Mixer Tools -->
<svg height="800px" width="800px" version="1.1" id="Layer_1" xmlns="http://www.w3.org/2000/svg" xmlns:xlink="http://www.w3.org/1999/xlink" 
	 viewBox="0 0 512 512" xml:space="preserve">
<path style="fill:#FFE477;" d="M172.516,262.977c7.043-6.25,11.486-15.365,11.486-25.523c0-18.844-15.276-34.119-34.119-34.119
	c-9.532,0-18.147,3.912-24.338,10.215c-3.456-3.487-8.247-5.648-13.543-5.648c-8.417,0-15.546,5.459-18.078,13.023
	c-2.937-1.289-6.18-2.008-9.593-2.008c-11.626,0-21.31,8.299-23.462,19.296c-1.68-0.484-3.449-0.758-5.285-0.758
	c-10.535,0-19.075,8.54-19.075,19.075c0,2.267,0.416,4.431,1.142,6.448h134.865V262.977z"/>
<path style="fill:#FFDA44;" d="M149.881,203.335c-5.038,0-9.814,1.102-14.118,3.063c-3.292,22.396-0.805,56.579-0.805,56.579h37.556
	c7.043-6.25,11.486-15.365,11.486-25.523C184.002,218.611,168.726,203.335,149.881,203.335z"/>
<path style="fill:#91CC04;" d="M146.755,237.042c-1.998,0-3.954-0.811-5.373-2.22c-1.419-1.419-2.23-3.376-2.23-5.384
	c0-1.997,0.811-3.964,2.23-5.373c1.418-1.419,3.375-2.23,5.373-2.23c2.006,0,3.964,0.811,5.384,2.23
	c1.41,1.419,2.22,3.376,2.22,5.373c0,2.007-0.811,3.964-2.22,5.384C150.719,236.231,148.762,237.042,146.755,237.042z"/>
<path style="fill:#FF3F62;" d="M121.827,248.364c-1.998,0-3.954-0.811-5.373-2.22c-1.419-1.419-2.23-3.376-2.23-5.384
	c0-1.997,0.811-3.964,2.23-5.373c1.418-1.419,3.375-2.23,5.373-2.23c2.006,0,3.964,0.811,5.384,2.23
	c1.41,1.419,2.22,3.376,2.22,5.373c0,2.007-0.811,3.964-2.22,5.384C125.791,247.553,123.834,248.364,121.827,248.364z"/>
<path style="fill:#91CC04;" d="M88.965,249.267c-1.998,0-3.954-0.811-5.373-2.22c-1.419-1.419-2.23-3.376-2.23-5.384
	c0-1.997,0.811-3.964,2.23-5.373c1.418-1.419,3.375-2.23,5.373-2.23c2.006,0,3.964,0.811,5.384,2.23
	c1.41,1.419,2.22,3.376,2.22,5.373c0,2.007-0.811,3.964-2.22,5.384C92.929,248.456,90.972,249.267,88.965,249.267z"/>
<path style="fill:#891C00;" d="M417.555,308.287H317.255c-20.632,0-37.513-16.881-37.513-37.513V237.62
	c0-20.632,16.881-37.513,37.513-37.513h100.301c20.632,0,37.513,16.881,37.513,37.513v33.154
	C455.068,291.406,438.187,308.287,417.555,308.287z"/>
<path style="fill:#781900;" d="M399.644,219.096c0-6.573-0.902-12.935-2.56-18.989h-79.829c-20.632,0-37.513,16.881-37.513,37.513
	v33.154c0,20.632,16.881,37.513,37.513,37.513h67.276c9.46-12.188,15.113-27.469,15.113-44.056V219.096z"/>
<path style="fill:#AB2300;" d="M329.892,303.992H202.887c-20.632,0-37.513-16.881-37.513-37.513v-49.632
	c0-20.632,16.881-37.513,37.513-37.513h127.006c20.632,0,37.513,16.881,37.513,37.513v49.632
	C367.405,287.112,350.524,303.992,329.892,303.992z"/>
<path style="fill:#891C00;" d="M216.957,264.231v-45.135c0-21.869,17.893-39.761,39.761-39.761h-53.831
	c-20.632,0-37.513,16.881-37.513,37.513v49.632c0,20.632,16.881,37.513,37.513,37.513h53.831
	C234.849,303.992,216.957,286.1,216.957,264.231z"/>
<g>
	<path style="fill:#FFEB99;" d="M266.389,218.543c-1.998,0-3.954-0.811-5.373-2.22c-1.419-1.419-2.23-3.376-2.23-5.384
		c0-1.997,0.811-3.964,2.23-5.373c1.418-1.419,3.375-2.23,5.373-2.23c2.006,0,3.964,0.811,5.384,2.23
		c1.41,1.419,2.22,3.376,2.22,5.373c0,2.007-0.811,3.964-2.22,5.384C270.354,217.732,268.397,218.543,266.389,218.543z"/>
	<path style="fill:#FFEB99;" d="M296.13,240.76c-1.998,0-3.954-0.811-5.373-2.22c-1.419-1.419-2.23-3.376-2.23-5.384
		c0-1.997,0.811-3.964,2.23-5.373c1.418-1.419,3.375-2.23,5.373-2.23c2.006,0,3.964,0.811,5.384,2.23
		c1.41,1.419,2.22,3.376,2.22,5.373c0,2.007-0.811,3.964-2.22,5.384C300.094,239.949,298.136,240.76,296.13,240.76z"/>
	<path style="fill:#FFEB99;" d="M311.338,210.939c-1.998,0-3.954-0.811-5.373-2.22c-1.419-1.419-2.23-3.376-2.23-5.384
		c0-1.997,0.811-3.964,2.23-5.373c1.418-1.419,3.375-2.23,5.373-2.23c2.006,0,3.964,0.811,5.384,2.23
		c1.41,1.419,2.22,3.376,2.22,5.373c0,2.007-0.811,3.964-2.22,5.384C315.302,210.128,313.344,210.939,311.338,210.939z"/>
	<path style="fill:#FFEB99;" d="M339.693,240.76c-1.998,0-3.954-0.811-5.373-2.22c-1.419-1.419-2.23-3.376-2.23-5.384
		c0-1.997,0.811-3.964,2.23-5.373c1.418-1.419,3.375-2.23,5.373-2.23c2.006,0,3.964,0.811,5.384,2.23
		c1.41,1.419,2.22,3.376,2.22,5.373c0,2.007-0.811,3.964-2.22,5.384C343.657,239.949,341.7,240.76,339.693,240.76z"/>
	<path style="fill:#FFEB99;" d="M241.012,248.364c-1.998,0-3.954-0.811-5.373-2.22c-1.419-1.419-2.23-3.376-2.23-5.384
		c0-1.997,0.811-3.964,2.23-5.373c1.418-1.419,3.375-2.23,5.373-2.23c2.006,0,3.964,0.811,5.384,2.23
		c1.41,1.419,2.22,3.376,2.22,5.373c0,2.007-0.811,3.964-2.22,5.384C244.976,247.553,243.018,248.364,241.012,248.364z"/>
	<path style="fill:#FFEB99;" d="M421.985,248.364c-1.998,0-3.954-0.811-5.373-2.22c-1.419-1.419-2.23-3.376-2.23-5.384
		c0-1.997,0.811-3.964,2.23-5.373c1.418-1.419,3.375-2.23,5.373-2.23c2.006,0,3.964,0.811,5.384,2.23
		c1.41,1.419,2.22,3.376,2.22,5.373c0,2.007-0.811,3.964-2.22,5.384C425.949,247.553,423.991,248.364,421.985,248.364z"/>
	<path style="fill:#FFEB99;" d="M399.644,229.438c-1.998,0-3.954-0.811-5.373-2.22c-1.419-1.419-2.23-3.376-2.23-5.384
		c0-1.997,0.811-3.964,2.23-5.373c1.418-1.419,3.375-2.23,5.373-2.23c2.006,0,3.964,0.811,5.384,2.23
		c1.41,1.419,2.22,3.376,2.22,5.373c0,2.007-0.811,3.964-2.22,5.384C403.609,228.627,401.651,229.438,399.644,229.438z"/>
</g>
<path style="fill:#9BC9FF;" d="M32.944,290.141l25.349,37.168c2.285,3.351,6.078,5.355,10.134,5.355h375.148
	c4.056,0,7.848-2.004,10.135-5.355l25.349-37.168H32.944z"/>
<path style="fill:#57A4FF;" d="M141.985,327.31l-25.349-37.169H32.944l25.349,37.169c2.285,3.351,6.078,5.355,10.134,5.355h83.692
	C148.063,332.665,144.271,330.66,141.985,327.31z"/>
<path style="fill:#BDDBFF;" d="M487.899,293.742H24.101c-9.073,0-16.497-7.423-16.497-16.497l0,0
	c0-9.073,7.423-16.497,16.497-16.497H487.9c9.073,0,16.497,7.423,16.497,16.497l0,0
	C504.396,286.318,496.973,293.742,487.899,293.742z"/>
<path style="fill:#9BC9FF;" d="M110.255,277.245L110.255,277.245c0-9.074,7.423-16.497,16.497-16.497H24.101
	c-9.073,0-16.497,7.423-16.497,16.497l0,0c0,9.073,7.423,16.497,16.497,16.497h102.651
	C117.678,293.742,110.255,286.318,110.255,277.245z"/>
<path d="M487.899,253.143h-25.227v-15.524c0-24.878-20.239-45.117-45.117-45.117h-49.708c-8.034-12.482-22.04-20.772-37.955-20.772
	H202.887c-17.988,0-33.544,10.584-40.785,25.848c-2.382-0.729-4.819-1.268-7.303-1.56c-4.179-0.496-7.95,2.493-8.44,6.664
	c-0.49,4.171,2.493,7.95,6.664,8.44c1.698,0.2,3.364,0.577,4.983,1.097c-1.702,15.73-0.236,40.923-0.236,40.923H44.623
	c1.448-4.677,5.812-8.086,10.96-8.086c1.048,0,2.118,0.155,3.179,0.461c2.049,0.591,4.251,0.294,6.07-0.818
	c1.819-1.112,3.088-2.936,3.498-5.029c1.49-7.621,8.219-13.152,15.999-13.152c2.27,0,4.47,0.46,6.539,1.368
	c1.956,0.859,4.182,0.855,6.136-0.012c1.953-0.866,3.451-2.513,4.129-4.539c1.567-4.685,5.935-7.833,10.868-7.833
	c3.079,0,5.972,1.206,8.143,3.398c1.429,1.44,3.372,2.25,5.4,2.25c0.006,0,0.012,0,0.018,0c2.034-0.005,3.981-0.824,5.407-2.276
	c1.302-1.325,2.745-2.517,4.29-3.541c3.5-2.322,4.644-7.174,2.133-10.54c-4.914-6.587-11.631-1.391-12.164-1
	c-3.983-2.283-8.511-3.499-13.228-3.499c-8.933,0-17.069,4.434-21.957,11.533c-1.873-0.344-22.865-4.327-34.436,18.019
	c-0.008,0-0.016,0-0.024,0c-13.563,0-24.787,10.176-26.457,23.293H24.1C10.812,253.143,0,263.955,0,277.245s10.812,24.1,24.1,24.1
	h7.28l20.63,30.249c3.706,5.431,9.843,8.674,16.415,8.674h239.786c4.199,0,7.604-3.405,7.604-7.604c0-4.199-3.405-7.604-7.604-7.604
	H68.427c-1.542,0-2.983-0.761-3.852-2.036l-14.786-21.679h412.424l-14.785,21.679c-0.87,1.274-2.31,2.036-3.853,2.036h-75.544
	c-4.199,0-7.604,3.405-7.604,7.604c0,4.199,3.405,7.604,7.604,7.604h75.544c6.574,0,12.711-3.242,16.416-8.675l20.63-30.248h7.277
	c13.29,0,24.1-10.812,24.1-24.1S501.188,253.143,487.899,253.143z M417.555,207.712c16.491,0,29.909,13.417,29.909,29.909v15.524
	h-72.455v-36.296c0-3.13-0.321-6.185-0.931-9.137H417.555z M172.978,216.847c0-16.492,13.417-29.909,29.909-29.909h127.006
	c16.492,0,29.909,13.416,29.909,29.909v36.296H172.978V216.847z M487.899,286.138H24.1c-4.903,0-8.893-3.99-8.893-8.893
	c0-4.904,3.99-8.894,8.893-8.894h463.798c4.903,0,8.893,3.99,8.893,8.894C496.792,282.148,492.803,286.138,487.899,286.138z"/>
<path d="M344.713,325.061h-13.18c-4.199,0-7.604,3.405-7.604,7.604c0,4.199,3.405,7.604,7.604,7.604h13.18
	c4.199,0,7.604-3.405,7.604-7.604C352.317,328.466,348.912,325.061,344.713,325.061z"/>
</svg>