<?xml version="1.0" encoding="iso-8859-1"?>
<!-- Uploaded to: SVG Repo, www.svgrepo.com, Generator: SVG Repo Mixer Tools -->
<svg fill="#000000" height="800px" width="800px" version="1.1" id="Layer_1" xmlns="http://www.w3.org/2000/svg" xmlns:xlink="http://www.w3.org/1999/xlink" 
	 viewBox="0 0 512 512" xml:space="preserve">
<g>
	<g>
		<path d="M386.723,386.723h-57.191V384c0-19.728-14.057-36.233-32.681-40.029v-93.418h2.723c3.774,0,7.057-2.585,7.943-6.253
			l38.128-157.957c0.008-0.033,0.011-0.068,0.017-0.1c0.05-0.22,0.088-0.444,0.12-0.671c0.011-0.077,0.026-0.154,0.035-0.232
			c0.034-0.301,0.054-0.605,0.054-0.914V40.851C345.872,18.325,327.547,0,305.021,0h-98.043c-22.526,0-40.851,18.325-40.851,40.851
			v43.574c0,0.309,0.021,0.614,0.054,0.915c0.009,0.076,0.024,0.15,0.035,0.227c0.033,0.23,0.071,0.458,0.122,0.681
			c0.008,0.032,0.01,0.063,0.017,0.095L204.484,244.3c0.886,3.668,4.168,6.253,7.943,6.253h2.723v93.418
			c-18.624,3.795-32.681,20.3-32.681,40.029v2.723h-57.193c-22.526,0-40.851,18.325-40.851,40.851v43.574
			c0,4.513,3.658,8.17,8.17,8.17h13.617v24.511c0,4.513,3.658,8.17,8.17,8.17h283.234c4.513,0,8.17-3.657,8.17-8.17v-24.511h13.617
			c4.513,0,8.17-3.657,8.17-8.17v-43.574C427.574,405.049,409.249,386.723,386.723,386.723z M184.675,92.596h38.644
			c4.512,0,8.17-3.657,8.17-8.17s-3.658-8.17-8.17-8.17h-40.851V40.851c0-13.515,10.995-24.511,24.511-24.511h98.043
			c13.515,0,24.511,10.996,24.511,24.511v35.404H256c-4.512,0-8.17,3.657-8.17,8.17s3.658,8.17,8.17,8.17h71.325l-34.183,141.617
			h-74.282L184.675,92.596z M198.809,384c0-13.515,10.995-24.511,24.511-24.511c4.512,0,8.17-3.657,8.17-8.17V250.553h49.021v92.596
			H256c-4.512,0-8.17,3.657-8.17,8.17s3.658,8.17,8.17,8.17h32.681c13.515,0,24.511,10.996,24.511,24.511v2.723H198.809V384z
			 M389.447,495.66H122.553v-16.34h266.894V495.66z M411.234,462.979H100.766v-35.404c0-13.515,10.995-24.511,24.511-24.511h261.447
			c13.515,0,24.511,10.996,24.511,24.511V462.979z"/>
	</g>
</g>
</svg>