<?xml version="1.0" encoding="iso-8859-1"?>
<!-- Uploaded to: SVG Repo, www.svgrepo.com, Generator: SVG Repo Mixer Tools -->
<svg fill="#000000" version="1.1" id="Layer_1" xmlns="http://www.w3.org/2000/svg" xmlns:xlink="http://www.w3.org/1999/xlink" 
	 viewBox="0 0 255.074 255.074" xml:space="preserve">
<g>
	<g>
		<g>
			<path d="M170.564,0H84.51C65.392,0,49.84,15.552,49.84,34.67v185.734c0,19.121,15.552,34.67,34.67,34.67h86.054
				c19.121,0,34.67-15.55,34.67-34.67V34.67C205.235,15.552,189.683,0,170.564,0z M170.564,240.216H84.51
				c-10.924,0-19.812-8.888-19.812-19.812V34.67c0-10.924,8.888-19.812,19.812-19.812h86.054c10.926,0,19.812,8.888,19.812,19.812
				v185.734h0C190.376,231.328,181.49,240.216,170.564,240.216z"/>
			<path d="M76.048,155.397h103.186V29.923H76.048V155.397z M90.909,44.782h73.469v95.757H90.909V44.782z"/>
			<rect x="76.875" y="164.065" width="23.113" height="14.859"/>
			<rect x="156.119" y="164.065" width="23.115" height="14.859"/>
			<rect x="115.981" y="164.065" width="23.115" height="14.859"/>
			<rect x="76.875" y="187.175" width="23.113" height="14.859"/>
			<rect x="156.119" y="187.175" width="23.115" height="14.859"/>
			<rect x="115.981" y="187.175" width="23.115" height="14.859"/>
			<rect x="76.875" y="210.291" width="23.113" height="14.859"/>
			<rect x="156.119" y="210.291" width="23.115" height="14.859"/>
			<rect x="115.981" y="210.291" width="23.115" height="14.859"/>
		</g>
	</g>
</g>
</svg>